<?xml version="1.0" encoding="UTF-8"?>
<svg id="Layer_1" xmlns="http://www.w3.org/2000/svg" version="1.1" xmlns:xlink="http://www.w3.org/1999/xlink" viewBox="0 0 114 39">
  <!-- Generator: Adobe Illustrator 29.4.0, SVG Export Plug-In . SVG Version: 2.1.0 Build 152)  -->
  <defs>
    <style>
      .st0 {
        fill: #fff;
      }

      .st1 {
        fill: none;
      }

      .st2 {
        clip-path: url(#clippath);
      }
    </style>
    <clipPath id="clippath">
      <rect class="st1" width="114" height="39"/>
    </clipPath>
  </defs>
  <g class="st2">
    <g>
      <path class="st0" d="M4.57,34.4l1.08,3.16h.01l1.1-3.16h1.57v.09h-.58v4.34h.58v.09h-2.05v-.09h.57v-4.34h-.01l-1.54,4.43h-.1l-1.55-4.43h-.01v4.34h.58v.09h-1.25v-.09h.58v-4.34h-.58v-.09h1.61,0Z"/>
      <path class="st0" d="M15.86,38.82l1.87-4.6h.17l1.97,4.6h.54v.09h-2.1v-.09h.58l-.73-1.7h-1.5l-.7,1.7h.56v.09h-1.18v-.09h.53,0ZM16.69,37.03h1.44l-.74-1.73-.7,1.73h0Z"/>
      <path class="st0" d="M28.88,34.4l2.08,3.02h.01v-2.93h-.58v-.09h1.25v.09h-.58v4.43h-.17l-2.82-4.06h-.01v3.98h.58v.09h-1.25v-.09h.58v-4.34h-.58v-.09h1.48Z"/>
      <path class="st0" d="M39.15,38.82l1.87-4.6h.17l1.97,4.6h.54v.09h-2.1v-.09h.58l-.73-1.7h-1.5l-.7,1.7h.56v.09h-1.18v-.09h.53,0ZM39.98,37.03h1.44l-.74-1.73-.7,1.73h0Z"/>
      <path class="st0" d="M54.48,35.69c-.11-.41-.27-.74-.49-.97-.22-.23-.51-.34-.87-.34-.29,0-.52.06-.7.17-.17.11-.31.26-.4.44-.09.18-.16.39-.18.62-.03.23-.04.46-.04.7v.55c0,.39.02.71.07.97.05.26.13.47.24.63.11.16.24.28.41.35.17.07.37.1.6.1.19,0,.34-.03.46-.1.11-.07.2-.16.26-.29.06-.12.1-.26.12-.43.02-.16.02-.34.02-.54v-.24h-.64v-.09h1.93v.09h-.41v1.45h-.11c0-.05-.03-.09-.07-.11-.04-.02-.08-.03-.13-.03-.1,0-.2.02-.29.06-.09.04-.19.08-.29.13-.1.05-.22.09-.36.13-.14.04-.3.06-.49.06-.3,0-.6-.06-.88-.18-.28-.12-.53-.29-.75-.5-.21-.21-.39-.46-.52-.74-.13-.28-.19-.59-.19-.92,0-.36.07-.68.22-.98.14-.29.33-.54.55-.75.23-.21.48-.37.75-.48.28-.11.55-.17.82-.17.13,0,.25.01.36.04.12.03.23.05.32.08.1.03.19.05.27.08.08.03.15.04.2.04.06,0,.1,0,.13-.03.02-.02.05-.05.07-.1h.11v1.29h-.09Z"/>
      <path class="st0" d="M66.27,34.4v1.08h-.08c-.02-.07-.06-.16-.11-.28-.05-.11-.12-.22-.21-.33-.09-.11-.21-.2-.35-.28-.14-.08-.32-.12-.52-.12h-1v1.96h.35c.15,0,.29-.02.39-.07.11-.04.2-.11.27-.19.07-.08.13-.18.17-.3.05-.12.08-.25.11-.39h.08v1.97h-.08c-.03-.12-.06-.24-.1-.36-.04-.11-.09-.21-.16-.3-.07-.09-.15-.15-.25-.21-.1-.05-.22-.08-.37-.08h-.42v2.29h1.03c.19,0,.36-.03.52-.1.15-.07.29-.16.41-.28.12-.12.22-.26.3-.42.08-.16.14-.33.18-.51h.08v1.39h-4v-.09h.58v-4.34h-.58v-.09h3.74,0Z"/>
      <path class="st0" d="M75.59,34.4l1.08,3.16h.01l1.1-3.16h1.57v.09h-.58v4.34h.58v.09h-2.05v-.09h.57v-4.34h-.01l-1.54,4.43h-.1l-1.55-4.43h-.01v4.34h.58v.09h-1.25v-.09h.58v-4.34h-.58v-.09h1.61,0Z"/>
      <path class="st0" d="M90.48,34.4v1.08h-.08c-.02-.07-.06-.16-.11-.28-.05-.11-.12-.22-.21-.33-.09-.11-.21-.2-.35-.28-.14-.08-.32-.12-.52-.12h-1v1.96h.35c.15,0,.29-.02.39-.07.11-.04.2-.11.27-.19.07-.08.13-.18.17-.3.05-.12.08-.25.11-.39h.08v1.97h-.08c-.03-.12-.06-.24-.1-.36-.04-.11-.09-.21-.16-.3-.07-.09-.15-.15-.25-.21-.1-.05-.22-.08-.37-.08h-.42v2.29h1.03c.19,0,.36-.03.52-.1.15-.07.29-.16.41-.28.12-.12.22-.26.3-.42s.14-.33.18-.51h.08v1.39h-4v-.09h.58v-4.34h-.58v-.09h3.74,0Z"/>
      <path class="st0" d="M99.67,34.4l2.08,3.02h.01v-2.93h-.58v-.09h1.25v.09h-.58v4.43h-.17l-2.82-4.06h-.01v3.98h.58v.09h-1.25v-.09h.58v-4.34h-.58v-.09h1.48Z"/>
      <path class="st0" d="M111.09,34.48c-.15,0-.29.02-.41.05-.12.03-.23.09-.33.16-.1.08-.18.19-.26.33-.08.14-.14.32-.21.53h-.08v-1.16h3.92v1.16h-.08c-.06-.22-.13-.39-.21-.53-.08-.14-.16-.25-.26-.33-.1-.08-.2-.13-.32-.16s-.26-.05-.41-.05h-.23v4.34h.58v.09h-2.06v-.09h.58v-4.34h-.23Z"/>
      <path class="st0" d="M23.47.78h7.51v30.33h-7.51v-3.21c-1.47,1.41-2.94,2.43-4.41,3.05-1.47.62-3.07.93-4.8.93-3.87,0-7.21-1.52-10.03-4.56C1.41,24.29,0,20.52,0,16S1.36,7.48,4.1,4.49C6.82,1.5,10.14,0,14.04,0c1.8,0,3.48.34,5.06,1.03,1.58.69,3.03,1.72,4.37,3.09V.78ZM15.57,7.02c-2.32,0-4.25.83-5.79,2.49-1.54,1.66-2.3,3.8-2.3,6.4s.78,4.78,2.34,6.47c1.56,1.69,3.49,2.54,5.77,2.54s4.31-.83,5.87-2.49c1.55-1.66,2.33-3.84,2.33-6.54s-.78-4.77-2.33-6.41c-1.55-1.63-3.52-2.45-5.89-2.45h0Z"/>
      <path class="st0" d="M36.99.78h7.51v3.11c1.7-1.45,3.25-2.47,4.63-3.04,1.38-.57,2.8-.85,4.25-.85,2.97,0,5.49,1.05,7.56,3.15,1.74,1.78,2.61,4.42,2.61,7.92v20.04h-7.43v-13.28c0-3.62-.16-6.02-.48-7.21-.32-1.19-.88-2.09-1.67-2.71-.8-.62-1.78-.93-2.95-.93-1.52,0-2.82.51-3.91,1.55-1.09,1.03-1.84,2.46-2.27,4.27-.22.95-.33,3-.33,6.15v12.17h-7.51V.78h0Z"/>
      <path class="st0" d="M69.24.78h3.85v5.24c1.34-1.93,2.72-3.35,4.13-4.24C79.17.6,81.21,0,83.36,0c1.45,0,2.83.29,4.13.86,1.3.58,2.37,1.34,3.2,2.3.83.96,1.54,2.33,2.15,4.11,1.28-2.38,2.88-4.18,4.8-5.42C99.56.62,101.63,0,103.84,0c2.07,0,3.89.53,5.48,1.59,1.58,1.06,2.76,2.54,3.53,4.43.77,1.9,1.15,4.74,1.15,8.53v16.56h-3.93V14.55c0-3.25-.23-5.49-.69-6.7-.46-1.22-1.24-2.2-2.35-2.94-1.11-.74-2.43-1.11-3.96-1.11-1.86,0-3.57.56-5.11,1.67-1.54,1.11-2.67,2.6-3.39,4.46-.71,1.86-1.07,4.96-1.07,9.31v11.87h-3.85v-15.53c0-3.66-.22-6.15-.67-7.46-.45-1.31-1.23-2.36-2.35-3.15-1.12-.79-2.45-1.18-3.99-1.18-1.78,0-3.44.54-4.99,1.63-1.55,1.09-2.7,2.55-3.44,4.39-.74,1.84-1.11,4.65-1.11,8.45v12.85h-3.85V.78h0Z"/>
    </g>
  </g>
</svg>