<?xml version="1.0" encoding="UTF-8"?>
<svg id="Layer_1" xmlns="http://www.w3.org/2000/svg" version="1.1" viewBox="0 0 280.88 39.8">
  <!-- Generator: Adobe Illustrator 29.4.0, SVG Export Plug-In . SVG Version: 2.1.0 Build 152)  -->
  <defs>
    <style>
      .st0 {
        fill: #fff;
      }
    </style>
  </defs>
  <g id="DULCEDO_LOGO_-19">
    <path id="Path_57" class="st0" d="M241.48,10.96c-.54-.61-1.15-1.16-1.81-1.64-3.33-2.3-7.31-3.49-11.35-3.38h-16.47c-.3,0-.6.04-.6.17,0,.22.35.35.73.52,1.23.65,1.7,1.44,1.7,4.18v18.12c0,2.75-.47,3.53-1.7,4.18-.38.18-.73.3-.73.52,0,.13.3.18.6.18h16.47c8.54,0,16.47-4.52,16.47-13.94.08-3.29-1.1-6.48-3.31-8.92ZM226.57,32.74h-2.71c-3.63,0-5.15-.85-5.15-3.43V7.02h7.86c9.33,0,12.37,6.77,12.37,12.85s-3.05,12.86-12.37,12.86h0Z"/>
    <path id="Path_58" class="st0" d="M175.01,26.77l1.13,3.96c-3.66,2.96-8.5,3.96-13.16,3.96-4.08.1-8.07-1.16-11.35-3.59-.67-.52-1.28-1.1-1.82-1.74-.03-.02-.05-.06-.08-.08-.32-.38-.62-.77-.9-1.19-1.58-2.44-2.39-5.3-2.31-8.2,0-10.02,7.93-14.81,16.47-14.81,4.66,0,9.5,1,13.16,3.96l-1.13,3.96c-.17.65-.22.79-.39.79-.22,0-.26-.39-.48-.9-1.91-4.4-5.14-6.71-9.41-6.71-9.33,0-12.37,7.23-12.37,13.73s3.05,13.72,12.37,13.72c4.27,0,7.49-2.31,9.41-6.71.22-.52.26-.9.48-.9.17-.02.21.1.39.76Z"/>
    <path id="Path_59" class="st0" d="M146.63,32.04c-.4-.47-.78-.96-1.13-1.47-2.38,1.33-5.04,2.07-7.76,2.17h-2.31c-3.7,0-5.36-.35-5.36-4.71V9.78c0-1.79.48-2.96,1.79-3.53.17-.09.39-.13.39-.26s-.13-.22-.52-.22c-.7,0-2.79.18-4.18.18s-3.5-.18-4.19-.18c-.39,0-.65.04-.65.18s.13.22.44.35c1.17.39,1.87,1.7,1.87,3.48v17.21c0,3.88-.44,5.49-2.13,6.23-.74.26-1.04.3-1.04.39s.22.22.96.22h25.62c-.64-.55-1.23-1.15-1.78-1.79Z"/>
    <path id="Path_60" class="st0" d="M264.41,5.08c-8.54,0-16.47,5.84-16.47,14.81s7.93,14.81,16.47,14.81,16.47-5.84,16.47-14.81-7.93-14.81-16.47-14.81ZM264.41,33.61c-7.93,0-10.63-7.23-10.63-13.73s2.71-13.72,10.63-13.72,10.63,7.23,10.63,13.72-2.7,13.73-10.63,13.73Z"/>
    <path id="Path_61" class="st0" d="M119.89,5.77c-.48,0-1.74.18-3.57.18-2,0-2.44-.18-3.66-.18-.13,0-.35.04-.35.18s.3.3.57.43c1.79.9,2.96,2.92,2.96,7.32v9.1c0,7.45-3.14,10.81-10.37,10.81-5.31,0-9.28-2.88-9.28-8.32v-14.6c0-2.75.48-3.53,1.7-4.18.39-.18.74-.3.74-.52,0-.13-.3-.18-.6-.18h-.19c-.7,0-2.79.15-4.18.15s-3.49-.15-4.18-.15h-.18c-.3,0-.6.04-.6.18,0,.22.35.35.74.52,1.22.65,1.7,1.44,1.7,4.18v14.64c0,.39.02.79.06,1.18.64,6.86,7.08,8.19,13.4,8.19,8.41,0,12.33-3.53,12.33-11.94v-9.06c.04-4.49,1.66-6.36,2.96-7.19.44-.3.65-.48.65-.57s-.26-.18-.65-.18Z"/>
    <path id="Path_62" class="st0" d="M195.31,18.58c3.18,0,5.97-1.48,6.58-3.27.09-.26.22-.39.35-.39s.17.22.17.65v7.19c0,.74-.04.9-.17.9s-.22-.3-.35-.6c-1.25-3.22-4.84-3.39-7.87-3.39h-6.78v9.19c0,3.18,1.09,3.88,4.05,3.88h3.66c2.27-.07,4.51-.61,6.57-1.58,1.87-.79,3.54-1.97,4.9-3.47.48-.57.7-1.05.9-1.05.14,0,.26.09.27.23,0,.02,0,.05,0,.07-.09.36-.8,2.8-.96,3.35l-1,3.53h-25.91c-.3,0-.71,0-.71-.2s.34-.24.73-.38c1.07-.34,1.88-1.21,2.14-2.31.29-1.21.4-2.45.32-3.68V10.67c0-.29,0-.55-.02-.79-.1-1.94-.57-2.66-1.58-3.18l-.1-.05c-.39-.19-.74-.3-.74-.52,0-.03,0-.05.03-.07.06-.1.32-.1.58-.1h25.68l.7,2.48c.36,1.05.65,2.13.86,3.22,0,.18-.09.35-.22.35-.23-.04-.42-.19-.52-.39-1.83-3.01-6.45-4.57-10.54-4.57h-9.06v11.54h8.06Z"/>
    <path id="Path_63" class="st0" d="M82.93,10.97c-.55-.61-1.16-1.16-1.82-1.64-3.33-2.3-7.3-3.49-11.35-3.38h-16.48c-.3,0-.6.04-.6.18,0,.22.35.35.73.52,1.23.65,1.7,1.44,1.7,4.18v18.12c0,2.75-.47,3.53-1.7,4.18-.38.18-.73.3-.73.52,0,.13.3.18.6.18h16.47c8.54,0,16.47-4.52,16.47-13.94.09-3.29-1.08-6.48-3.29-8.92ZM68.01,32.74h-2.69c-3.63,0-5.15-.85-5.15-3.43V7.03h7.84c9.33,0,12.37,6.77,12.37,12.85s-3.05,12.86-12.38,12.86h0Z"/>
    <path id="Path_64" class="st0" d="M37.05,19.89c0-7.28-4.56-12.52-10.4-15.04C24.54,1.67,21.76,0,18.52,0s-6.02,1.66-8.13,4.85C4.55,7.37,0,12.61,0,19.9s4.56,12.52,10.4,15.05c2.11,3.18,4.89,4.85,8.13,4.85s6.02-1.66,8.13-4.85c5.84-2.54,10.4-7.78,10.4-15.06ZM18.52,1.22c2.32.02,4.51,1.06,5.99,2.85-3.9-1.2-8.07-1.2-11.98,0,1.48-1.79,3.67-2.83,5.99-2.85ZM25.82,5.82c2.66,4.21,3.66,10.35,3.66,14.07s-1,9.85-3.66,14.07c-4.68,1.92-9.92,1.92-14.6,0-2.66-4.21-3.66-10.35-3.66-14.07s1-9.85,3.66-14.07c4.68-1.92,9.92-1.92,14.6,0ZM1.21,19.88c0-5.56,3.14-10.65,8.1-13.16-.12.24-.24.48-.35.74-3.47,7.92-3.47,16.94,0,24.86.11.25.24.49.35.74-4.96-2.52-8.08-7.6-8.1-13.16h0ZM18.52,38.55c-2.32-.02-4.51-1.06-5.99-2.85,3.9,1.2,8.07,1.2,11.98,0-1.47,1.79-3.67,2.84-5.99,2.85h0ZM27.73,33.04c.12-.24.24-.48.35-.74,3.47-7.92,3.47-16.94,0-24.86-.11-.25-.24-.49-.35-.74,7.27,3.68,10.19,12.56,6.51,19.83-1.42,2.81-3.7,5.09-6.51,6.51h0Z"/>
  </g>
</svg>